<?xml version="1.0" encoding="UTF-8" standalone="no"?>
<svg
   xmlns:dc="http://purl.org/dc/elements/1.1/"
   xmlns:cc="http://creativecommons.org/ns#"
   xmlns:rdf="http://www.w3.org/1999/02/22-rdf-syntax-ns#"
   xmlns:svg="http://www.w3.org/2000/svg"
   xmlns="http://www.w3.org/2000/svg"
   xmlns:sodipodi="http://sodipodi.sourceforge.net/DTD/sodipodi-0.dtd"
   xmlns:inkscape="http://www.inkscape.org/namespaces/inkscape"
   version="1.1"
   id="svg2"
   xml:space="preserve"
   width="3447.7866"
   height="1279.7733"
   viewBox="0 0 3447.7866 1279.7733"
   sodipodi:docname="SamsSalat_Logo_Jan2021_MoerkGroen_CMYK.eps"><metadata
     id="metadata8"><rdf:RDF><cc:Work
         rdf:about=""><dc:format>image/svg+xml</dc:format><dc:type
           rdf:resource="http://purl.org/dc/dcmitype/StillImage" /></cc:Work></rdf:RDF></metadata><defs
     id="defs6" /><sodipodi:namedview
     pagecolor="#ffffff"
     bordercolor="#666666"
     borderopacity="1"
     objecttolerance="10"
     gridtolerance="10"
     guidetolerance="10"
     inkscape:pageopacity="0"
     inkscape:pageshadow="2"
     inkscape:window-width="640"
     inkscape:window-height="480"
     id="namedview4" /><g
     id="g10"
     inkscape:groupmode="layer"
     inkscape:label="ink_ext_XXXXXX"
     transform="matrix(1.3333333,0,0,-1.3333333,0,1279.7733)"><g
       id="g12"
       transform="scale(0.1)"><path
         d="m 10097.5,4018.12 c -181.36,-339.83 -359.73,-673.98 -540.54,-1012.7 -39.33,16.18 -73.07,30.46 -107.12,44 -263.75,104.87 -525.31,215.81 -792.11,312.29 -197.72,71.51 -405.11,112.22 -616.92,107.73 -66.95,-1.43 -136.12,-22.04 -199.44,-46.4 -151.42,-58.25 -152.12,-264.06 -36.42,-345.97 29.89,-21.15 64.56,-36.41 98.55,-50.86 240.1,-102.02 494.14,-161.02 741.94,-239.39 192.27,-60.81 384.04,-123.67 573.82,-191.77 253.03,-90.78 463.62,-245.18 639.61,-447.06 113.37,-130.05 175.03,-284 199.33,-452.91 29.8,-207.19 23,-413.15 -35.4,-615.36 C 9957,852.07 9833.99,659.809 9656.88,502.41 9385.11,260.879 9064.77,121.73 8708.97,61.4609 8390.72,7.53906 8069.71,-8.71094 7747.81,14.9805 7116.36,61.4414 6530.14,248.102 5995.49,590.082 c -4.36,2.789 -7.78,7.059 -18.67,17.148 164.41,337.79 329.72,677.43 494.27,1015.53 156.55,-79.66 303.81,-158.74 454.6,-230.42 282.08,-134.09 576.98,-230.16 887.23,-272.34 144.58,-19.65 290.9,-37.49 436.31,-6.82 45.96,9.69 92.55,26.45 133.05,49.95 106.76,61.93 121.22,179.07 36.89,268.98 -59.86,63.82 -135.12,101.99 -218.22,125.68 -227.12,64.72 -454.58,128.27 -681.49,193.73 -204.13,58.87 -406.3,123.73 -599.21,213.99 -205.22,96.03 -380.12,230.41 -525.28,405.37 -143.23,172.63 -211.63,371.04 -224.54,592.1 -38.68,662.51 309.85,1120.64 836.21,1368.36 287.46,135.28 594.05,194.94 910.02,210 751.24,35.8 1453.54,-141.64 2117.24,-486.14 18.8,-9.71 36.5,-21.21 63.6,-37.08"
         style="fill:#112f2c;fill-opacity:1;fill-rule:nonzero;stroke:none"
         id="path14" /><path
         d="m 0,5659.93 c 165.691,340.11 330.129,677.63 496.918,1019.99 34.605,-18.34 62.516,-32.46 89.793,-47.7 274.07,-153.1 555.849,-288.01 859.039,-375.13 244.51,-70.25 493.12,-103.98 747.44,-98.95 76.62,1.51 147.09,22.78 212.61,59.18 108.34,60.19 125.32,177.07 39.62,267.25 -59.81,62.95 -133.89,104.55 -216.84,128.58 -168.18,48.7 -337.97,92.1 -505.21,143.79 -230.57,71.26 -461.53,142.28 -688.42,224.18 -261.345,94.34 -470.333,265.24 -644.727,478.86 -112.715,138.06 -168.438,300.54 -186.395,475.23 -29.344,285.35 1.945,561.33 138.856,819.57 110.851,209.09 267.707,374.98 464.808,504.09 283.528,185.71 596.478,285.52 932.448,319.13 257.19,25.72 514.04,27.14 771.63,3.38 419.01,-38.66 819.42,-147.85 1205.28,-312.08 121.95,-51.9 239.95,-113.1 359.54,-170.49 13.83,-6.64 26.28,-16.17 44.64,-27.65 -180.89,-339.04 -360.3,-675.3 -542.1,-1016.02 -48.27,21.52 -89.23,39.11 -129.62,57.92 -310.84,144.75 -626.57,277.56 -961.73,355.01 -126.14,29.15 -256.43,42.18 -385.54,56.02 -82.88,8.89 -164.36,-7.83 -238.98,-48.09 -144.38,-77.9 -162.11,-237 -32.87,-338.62 48.94,-38.48 108.22,-69.06 167.65,-88.09 260.29,-83.36 522.96,-159.26 783.55,-241.69 159.31,-50.39 317.5,-104.79 474.24,-162.64 241.76,-89.21 443.05,-237.95 614.7,-428.8 125.49,-139.53 188.64,-305.38 213.64,-488.39 41.42,-303.21 3.8,-592.5 -150.41,-861.69 -131.99,-230.4 -322.58,-399.43 -553.76,-524.69 -277.08,-150.13 -574.86,-231.14 -887.94,-260.46 -283.95,-26.6 -567.78,-27.74 -851.28,2.46 -573.84,61.13 -1110.119,233.55 -1598.7753,544.67 -12.918,8.22 -24.4766,18.57 -41.8047,31.87"
         style="fill:#112f2c;fill-opacity:1;fill-rule:nonzero;stroke:none"
         id="path16" /><path
         d="m 13867.8,5107.86 c -572.2,0 -1140.6,0 -1713.2,0 -1.5,28.76 -4.1,56.19 -4.2,83.63 -1,718.98 -2,1437.97 -2.6,2156.96 -0.1,128.68 -19.2,253.14 -65.8,374.06 -158,409.66 -730.4,459.73 -986.4,124.39 -123.1,-161.24 -177.3,-342.45 -177.5,-541.97 -0.6,-715.05 -0.2,-1430.1 -0.2,-2145.15 0,-15.81 0,-31.61 0,-50.5 -570.3,0 -1138.27,0 -1708.64,0 0,1450.1 0,2899.74 0,4352.99 569.15,0 1138.34,0 1712.94,0 0,-237.43 0,-474.12 0,-710.8 3.5,-1.47 7,-2.93 10.4,-4.4 29.4,33.29 59.6,65.88 88,100.01 108.5,130.76 211.9,266.14 342.9,376.61 230,193.99 498.1,294.73 794.9,324.77 268.3,27.17 530.3,2.8 782.7,-98.12 364.3,-145.67 617,-405.13 776.4,-760.05 19.6,-43.56 40.3,-86.63 61.1,-129.59 5.4,-11.14 13.5,-20.98 24,-36.97 43.8,75.63 84.6,145.28 124.6,215.39 154.5,270.61 355.9,495.68 631.7,647.65 201.7,111.16 420.2,161.73 648.8,170.35 251.3,9.46 498,-19.24 726.9,-128.46 462.7,-220.75 752.6,-580.77 836.2,-1090.68 28.8,-176.06 38.5,-356.6 41.2,-535.34 6.5,-425.19 4,-850.51 4.5,-1275.78 1.1,-1059.23 2.1,-2118.48 2.5,-3177.72 0.1,-414.62 -2.2,-829.22 -2,-1243.84 0.1,-86.07 -0.9,-173.15 11,-258 31.3,-221.31 195.3,-361.63 419,-363.95 60.5,-0.62 121.1,6.07 175,9.03 -1.1,-132.13 -9.3,-264.68 -2,-396.36 17.6,-314.008 99.9,-609.29 277.3,-873.528 27.2,-40.551 24.8,-48.492 -21.3,-66.07 -146.2,-55.731 -299.4,-82.4298 -453.3,-103.0314 -356.1,-47.67966 -704.5,-15.8398 -1043,109.6684 -539.1,199.871 -858.9,594.023 -1010.2,1137.451 -49.8,178.88 -70.3,362.14 -70.3,547.47 -0.4,1778.32 0.3,3556.65 -1.3,5334.97 -0.1,131.14 -3.2,264.26 -25.2,393.02 -61.7,362.13 -346.8,519.51 -637.7,486.52 -311.7,-35.34 -485.6,-285.94 -540.5,-529.04 -16.5,-73.18 -24,-149.89 -24.3,-225.01 -2.3,-636.62 -1.9,-1273.24 -2.4,-1909.86 0,-95.5 0,-191 0,-290.72"
         style="fill:#112f2c;fill-opacity:1;fill-rule:nonzero;stroke:none"
         id="path18" /><path
         d="m 7122.8,6956.09 c -20.11,2.26 -30.37,4.42 -40.62,4.43 -231,0.24 -461.99,0.86 -692.97,-0.26 -42.25,-0.2 -84.8,-5.62 -126.65,-12.18 -163.13,-25.56 -280.86,-134.95 -314.69,-296.29 -18.63,-88.9 -18.68,-179.47 4.34,-267.92 45.8,-176.01 157.57,-288.97 338.16,-316.75 328.86,-50.58 593.69,65.31 794.04,328.39 19.82,26.03 35.91,62.24 36.7,94.14 3.77,153.33 1.69,306.79 1.69,466.44 z m 9.68,720.61 c -8.38,68.75 -11.99,127.2 -23.09,184.2 -35.08,179.99 -137.67,307.18 -307.41,378.62 -131.67,55.42 -270.04,78.51 -412.14,78.49 -359.01,-0.05 -707.81,-66.63 -1051.24,-165.57 -104.51,-30.11 -207.91,-64.03 -322.48,-99.5 -120.33,339.06 -240.63,678.06 -363.33,1023.79 25.55,11.05 48.39,22.65 72.35,31.04 444.73,155.58 898.37,275.97 1366.34,336.89 495.42,64.5 990.94,70.38 1485.25,-11.54 197.77,-32.78 387.54,-91.59 561.5,-193.88 365.22,-214.73 572.18,-537.77 641.6,-950.56 17.95,-106.73 24.84,-216.44 25.26,-324.82 3.61,-918.89 4.56,-1837.8 6.29,-2756.7 0.06,-31.37 0.01,-62.74 0.01,-99.88 -563.51,0 -1120,0 -1683.96,0 0,166.6 0,330.15 0,502.88 -68.89,-31.8 -131.92,-53.52 -174.63,-106.1 -196.04,-241.35 -450.77,-382.33 -752.84,-443.64 -350.75,-71.19 -699.83,-67.69 -1037.61,55.88 -488.25,178.6 -756.24,536.23 -818.21,1050.12 -22.12,183.47 -15.33,365.8 24.84,546.24 80.3,360.62 299.29,607.03 629.59,762.96 259.22,122.38 534.28,175.34 817.86,185.56 278.82,10.06 557.94,12.87 836.95,16.25 130.17,1.58 260.42,-3.22 390.63,-4.54 26,-0.26 52.03,2.16 88.47,3.81"
         style="fill:#112f2c;fill-opacity:1;fill-rule:nonzero;stroke:none"
         id="path20" /><path
         d="m 13105.9,1938.31 c -26.6,1.69 -42.2,3.34 -57.9,3.57 -119.4,1.71 -238.8,4.49 -358.2,4.3 -137.9,-0.24 -276.2,2.78 -413.5,-6.45 -171.7,-11.52 -299.3,-121.21 -337.9,-288.7 -15.7,-68.29 -17.7,-141.81 -13.5,-212.21 11.8,-195.74 157.5,-359.46 352,-386.33 327.7,-45.26 594.4,66.67 793.7,331.76 18.2,24.18 33.1,57.52 33.8,86.95 3.3,153.25 1.5,306.6 1.5,467.11 z m -2471.1,2136.23 c 210.2,64.62 406.7,129.03 605.5,185.29 423.2,119.77 854.8,193.65 1294.4,213.39 359.1,16.12 717.8,8.07 1072.2,-61.16 295.1,-57.63 562.8,-173.33 781.5,-385.93 211.7,-205.96 327,-462.37 375.6,-748.79 20.8,-122.31 29.7,-247.96 30.1,-372.14 3.3,-900.35 3.1,-1800.7 4,-2701.059 0,-31.711 0,-63.411 0,-93.672 -60.6,-18.5002 -1515.1,-25.9495 -1686,-8.879 -5.7,84.48 -1.9,171.16 -2.6,257.531 -0.7,87.531 -0.1,175.059 -0.1,264.059 -46.1,-18.301 -127.3,-79.867 -183.6,-146.289 -228.4,-269.352 -524.9,-403.9691 -869.7,-451.1215 -299.4,-40.9179 -593.7,-33.27731 -880.9,68.1289 -309.1,109.1326 -562.4,288.6016 -711.1,589.4606 -125.4,253.723 -163.7,525.111 -142.7,805.451 11.4,151.88 44.4,299.26 107.6,438.62 115.4,254.66 314.5,423.11 562.8,539.32 231.5,108.4 476.7,168.1 731.3,174.55 430.3,10.92 860.9,12.19 1291.4,17.43 28.7,0.36 57.4,0.05 85,0.05 33.3,262.17 -89,475.35 -324.3,574.21 -132.4,55.62 -272.5,69.07 -413.7,70.87 -329.7,4.2 -649.9,-59.11 -966.2,-144.35 -130.1,-35.04 -258.3,-77.04 -395,-118.15 -120.4,340.41 -240.4,679.52 -365.5,1033.18"
         style="fill:#112f2c;fill-opacity:1;fill-rule:nonzero;stroke:none"
         id="path22" /><path
         d="m 21232.1,9028.32 c -181.5,-339.83 -361.1,-676.31 -541.3,-1013.8 -156.4,69.1 -305.8,137.77 -457.3,201.32 -240.2,100.79 -485.9,187.47 -742.7,234.54 -109,19.97 -221.7,27.92 -332.5,26.61 -63.9,-0.76 -131.7,-22.04 -190.4,-49.63 -125,-58.75 -148.3,-205.26 -54.4,-306.62 49.9,-53.93 113.6,-86.2 183.1,-108.33 328.7,-104.83 658,-207.78 985.7,-315.68 151,-49.72 302.7,-100.72 447.1,-166.5 178.5,-81.36 325.5,-209.88 454.5,-356.89 124.7,-142.12 191.5,-311.08 213.4,-497.51 42.2,-358.7 -16.5,-693.51 -242.8,-986.3 -145.8,-188.58 -330.6,-329.17 -544.7,-431.64 -281.5,-134.7 -580.1,-201.63 -890.3,-226.23 -514.8,-40.8 -1018.7,12.78 -1512.7,162 -296.6,89.61 -575.5,217.91 -837.5,383.23 -13.4,8.49 -26.7,17.38 -39.6,26.69 -4.1,2.97 -6.8,7.89 -16,19.02 162.8,334.48 327.3,672.3 495.1,1017.05 33.6,-18.23 61.3,-32.57 88.3,-48.05 321.9,-184.23 658.7,-332.24 1021.3,-416.46 179.1,-41.59 360.7,-65.09 544.9,-64.38 78,0.3 153.5,13.32 224.2,47.3 144,69.2 165.5,211.33 41,312.03 -52.2,42.17 -117.2,74.37 -181.5,94.62 -265.8,83.58 -534,159.55 -800.4,241.02 -129.4,39.55 -257.5,83.41 -385.2,128.22 -285.4,100.15 -507.7,285.33 -687.9,522.72 -88.3,116.36 -133.5,253.03 -152.7,397.28 -51,384.33 15.6,741.39 258.6,1052.81 193.8,248.31 452.4,405.74 745.2,512.36 265.4,96.65 542,130.29 821.6,138.69 721.1,21.67 1393,-163.08 2028.4,-494.29 18.4,-9.59 35.5,-21.65 57.5,-35.2"
         style="fill:#112f2c;fill-opacity:1;fill-rule:nonzero;stroke:none"
         id="path24" /><path
         d="m 23020.3,3215.35 c -181.3,0 -357.5,0 -536.7,0 -43.6,394.5 -182.8,740.87 -477.2,1023.34 23,0 37.1,0 51.1,0 297.7,0 595.3,0.65 893,-0.9 33.1,-0.17 50.5,10.71 55.7,40.86 6.1,35.11 13.4,70.67 13.5,106.05 1,354.74 0.6,709.48 0.6,1064.21 0,15.55 0,31.09 0,48.72 570.1,0 1135.6,0 1705,0 0,-414.94 0,-828.82 0,-1248.78 354.9,0 705.9,0 1058.9,0 0,-345.7 0,-685.3 0,-1028.8 -347.6,0 -695,0 -1047.9,0 -2.4,-31.82 -6.5,-60.32 -6.5,-88.83 -0.5,-427.81 -1.6,-855.63 0.8,-1283.42 0.5,-76.3 7.8,-154.66 26.5,-228.35 50.2,-197.53 235.6,-318.85 436.3,-286 120.2,19.68 238.4,51.16 357.5,77.42 8.8,1.95 17.5,4.5 30.9,7.98 20.4,-81.49 40.3,-160.71 60,-240 71,-285.76 141.5,-571.67 213.6,-857.151 7.6,-30.258 1.3,-44.019 -26.5,-57.918 -172.8,-86.172 -357,-134.461 -545.6,-168.8318 -250.4,-45.6172 -502.6,-68.5586 -757.1,-56.4687 -310.9,14.7812 -608.5,79.4295 -872.5,253.2105 -369.5,243.18 -588.4,580.36 -619.1,1027.309 -11.2,164.06 -13.1,328.97 -13.7,493.51 -1.8,449.07 -0.6,898.14 -0.6,1347.2 0,15.78 0,31.57 0,55.64"
         style="fill:#112f2c;fill-opacity:1;fill-rule:nonzero;stroke:none"
         id="path26" /><path
         d="m 20505.9,1946.59 c -135.6,0 -262.7,0.1 -389.9,-0.03 -135.4,-0.15 -270.8,2.97 -406.1,-1.6 -209,-7.06 -347.5,-130.67 -384.3,-335.7 -2.8,-15.66 -6,-31.3 -8,-47.07 -31.5,-246.2 131.1,-478.83 364.1,-508.88 317.9,-40.98 580.5,63.06 776.9,319.53 23,30.1 43.9,70.67 45.1,107.07 5.1,150.73 2.2,301.72 2.2,466.68 z m -7.1,714.34 c 31.2,276.36 -97.4,487.15 -344.4,580.13 -165.1,62.18 -336.5,71.13 -510.2,63.19 -412.4,-18.85 -808,-118.17 -1197.2,-248.43 -12.3,-4.1 -24.5,-8.33 -46.4,-15.79 -121.6,343.69 -242.2,684.65 -365.5,1033.21 140.9,45.99 273.5,91.57 407.5,132.6 404.8,123.95 817.1,213.65 1239.1,251.63 443.6,39.95 886.7,37.79 1326.5,-43.51 213.8,-39.52 414,-114.94 595.3,-236.78 326.9,-219.64 502.4,-533.82 562.3,-915.29 21,-133.09 29.8,-269.33 30.2,-404.17 2.6,-881.74 1.4,-1763.5 1.4,-2645.247 0,-31.711 0,-63.434 0,-102.512 -25.5,-4.441 -47.9,-11.6993 -70.3,-11.7618 -507.8,-1.3086 -1015.6,-1.9375 -1523.4,-2.25 -28.6,-0.0195 -57.2,3.6992 -92,6.1018 0,170.64 0,337.012 0,520.012 -79.3,-46.942 -143.1,-89.672 -194.1,-150.301 C 20185,314.09 20024.7,191.652 19830.2,124 c -477,-165.9102 -952.6,-177.6406 -1419.1,40.281 -356.7,166.61 -572.5,446.949 -656,829.969 -51.1,234.05 -55,468.87 -3.3,703.21 79.5,360.37 297,609.05 626.6,765.79 233.5,111.05 480.9,172.8 738,179.93 427.7,11.87 855.6,12.45 1283.5,17.69 31.5,0.39 63.1,0.06 98.9,0.06"
         style="fill:#112f2c;fill-opacity:1;fill-rule:nonzero;stroke:none"
         id="path28" /></g></g></svg>
